<?xml version="1.0" standalone="no"?>
<!DOCTYPE svg PUBLIC "-//W3C//DTD SVG 20010904//EN"
 "http://www.w3.org/TR/2001/REC-SVG-20010904/DTD/svg10.dtd">
<svg version="1.0" xmlns="http://www.w3.org/2000/svg"
 width="320.000000pt" height="320.000000pt" viewBox="0 0 320.000000 320.000000"
 preserveAspectRatio="xMidYMid meet">
<metadata>
Created by potrace 1.14, written by Peter Selinger 2001-2017
</metadata>
<g transform="translate(0.000000,320.000000) scale(0.100000,-0.100000)"
fill="#000000" stroke="none">
<path d="M885 3183 c-199 -41 -374 -158 -480 -323 -42 -64 -89 -164 -99 -211
-3 -13 -10 -44 -15 -69 -6 -26 -9 -221 -7 -460 3 -461 3 -464 74 -609 100
-207 291 -355 518 -402 89 -18 218 -20 299 -4 120 24 268 102 361 190 32 30
60 55 61 55 2 0 27 -23 56 -51 102 -100 247 -174 386 -196 77 -13 241 -7 309
10 267 70 473 279 542 549 17 65 19 116 20 477 0 381 -1 409 -21 490 -66 263
-263 466 -529 543 -85 24 -243 30 -335 11 -141 -29 -278 -100 -377 -197 -26
-25 -48 -46 -51 -46 -2 0 -26 21 -53 47 -94 89 -229 163 -351 192 -76 19 -228
20 -308 4z"/>
<path d="M1133 970 c-12 -5 -32 -23 -44 -39 -21 -28 -24 -30 -40 -15 -24 21
-92 29 -127 15 -16 -7 -35 -23 -43 -37 -8 -17 -18 -23 -28 -18 -66 27 -147 -4
-167 -64 -11 -35 -11 -307 0 -407 30 -266 151 -392 385 -401 206 -9 354 74
431 239 49 104 65 250 37 347 -8 27 -12 92 -11 165 2 167 -21 212 -112 220
-51 5 -83 -10 -98 -45 l-12 -30 -13 23 c-26 48 -100 70 -158 47z"/>
<path d="M1751 959 c-48 -29 -54 -52 -57 -204 -1 -78 -7 -159 -13 -180 -16
-57 -14 -167 5 -239 58 -224 237 -350 474 -333 170 13 271 78 328 213 44 104
55 196 56 440 0 172 -7 194 -72 221 -29 12 -46 13 -75 6 -35 -10 -40 -8 -73
25 -32 32 -38 34 -85 30 -28 -3 -58 -12 -67 -21 -14 -15 -18 -13 -46 19 -53
62 -148 57 -195 -8 -13 -19 -14 -18 -32 11 -10 17 -24 32 -31 32 -66 7 -91 4
-117 -12z"/>
</g>
</svg>
